<mxfile host="app.diagrams.net" modified="2023-10-19T16:05:05.104Z" agent="Mozilla/5.0 (Windows NT 10.0; Win64; x64) AppleWebKit/537.36 (KHTML, like Gecko) Chrome/116.0.5845.888 YaBrowser/23.9.2.888 Yowser/2.5 Safari/537.36" etag="TZNYdcL3NI318_BRvVLg" version="22.0.5" type="device">
  <diagram name="Страница — 1" id="VS_8Raf6bD6cNYzHdXcF">
    <mxGraphModel dx="2213" dy="767" grid="1" gridSize="10" guides="1" tooltips="1" connect="1" arrows="1" fold="1" page="1" pageScale="1" pageWidth="827" pageHeight="1169" math="0" shadow="0">
      <root>
        <mxCell id="0" />
        <mxCell id="1" parent="0" />
        <mxCell id="kgFtiSXkmtz2dTj0LC-S-1" value="Читатель" style="rounded=0;whiteSpace=wrap;html=1;" vertex="1" parent="1">
          <mxGeometry x="110" y="90" width="120" height="60" as="geometry" />
        </mxCell>
        <mxCell id="kgFtiSXkmtz2dTj0LC-S-2" value="Номер" style="rounded=0;whiteSpace=wrap;html=1;" vertex="1" parent="1">
          <mxGeometry x="-60" y="120" width="120" height="60" as="geometry" />
        </mxCell>
        <mxCell id="kgFtiSXkmtz2dTj0LC-S-3" value="Фио" style="rounded=0;whiteSpace=wrap;html=1;" vertex="1" parent="1">
          <mxGeometry x="-60" y="50" width="120" height="60" as="geometry" />
        </mxCell>
        <mxCell id="kgFtiSXkmtz2dTj0LC-S-4" value="" style="endArrow=none;html=1;rounded=0;exitX=1;exitY=0.5;exitDx=0;exitDy=0;entryX=0;entryY=0.5;entryDx=0;entryDy=0;" edge="1" parent="1" source="kgFtiSXkmtz2dTj0LC-S-2" target="kgFtiSXkmtz2dTj0LC-S-1">
          <mxGeometry width="50" height="50" relative="1" as="geometry">
            <mxPoint x="390" y="420" as="sourcePoint" />
            <mxPoint x="440" y="370" as="targetPoint" />
          </mxGeometry>
        </mxCell>
        <mxCell id="kgFtiSXkmtz2dTj0LC-S-5" value="" style="endArrow=none;html=1;rounded=0;exitX=1;exitY=0.5;exitDx=0;exitDy=0;entryX=0;entryY=0.5;entryDx=0;entryDy=0;" edge="1" parent="1" source="kgFtiSXkmtz2dTj0LC-S-3" target="kgFtiSXkmtz2dTj0LC-S-1">
          <mxGeometry width="50" height="50" relative="1" as="geometry">
            <mxPoint x="390" y="220" as="sourcePoint" />
            <mxPoint x="440" y="170" as="targetPoint" />
          </mxGeometry>
        </mxCell>
        <mxCell id="kgFtiSXkmtz2dTj0LC-S-6" value="Автор" style="rounded=0;whiteSpace=wrap;html=1;" vertex="1" parent="1">
          <mxGeometry x="500" y="480" width="120" height="60" as="geometry" />
        </mxCell>
        <mxCell id="kgFtiSXkmtz2dTj0LC-S-7" value="ФИО" style="rounded=0;whiteSpace=wrap;html=1;" vertex="1" parent="1">
          <mxGeometry x="680" y="420" width="120" height="60" as="geometry" />
        </mxCell>
        <mxCell id="kgFtiSXkmtz2dTj0LC-S-8" value="Номер" style="rounded=0;whiteSpace=wrap;html=1;" vertex="1" parent="1">
          <mxGeometry x="680" y="500" width="120" height="60" as="geometry" />
        </mxCell>
        <mxCell id="kgFtiSXkmtz2dTj0LC-S-11" value="" style="endArrow=none;html=1;rounded=0;entryX=0;entryY=0.5;entryDx=0;entryDy=0;exitX=1;exitY=0.5;exitDx=0;exitDy=0;" edge="1" parent="1" source="kgFtiSXkmtz2dTj0LC-S-6" target="kgFtiSXkmtz2dTj0LC-S-7">
          <mxGeometry width="50" height="50" relative="1" as="geometry">
            <mxPoint x="390" y="420" as="sourcePoint" />
            <mxPoint x="440" y="370" as="targetPoint" />
          </mxGeometry>
        </mxCell>
        <mxCell id="kgFtiSXkmtz2dTj0LC-S-12" value="" style="endArrow=none;html=1;rounded=0;entryX=0;entryY=0.5;entryDx=0;entryDy=0;" edge="1" parent="1" target="kgFtiSXkmtz2dTj0LC-S-8">
          <mxGeometry width="50" height="50" relative="1" as="geometry">
            <mxPoint x="620" y="510" as="sourcePoint" />
            <mxPoint x="440" y="370" as="targetPoint" />
          </mxGeometry>
        </mxCell>
        <mxCell id="kgFtiSXkmtz2dTj0LC-S-13" value="Книга" style="rounded=0;whiteSpace=wrap;html=1;" vertex="1" parent="1">
          <mxGeometry x="90" y="500" width="120" height="60" as="geometry" />
        </mxCell>
        <mxCell id="kgFtiSXkmtz2dTj0LC-S-14" value="Номер" style="rounded=0;whiteSpace=wrap;html=1;" vertex="1" parent="1">
          <mxGeometry x="-70" y="460" width="120" height="60" as="geometry" />
        </mxCell>
        <mxCell id="kgFtiSXkmtz2dTj0LC-S-15" value="Название" style="rounded=0;whiteSpace=wrap;html=1;" vertex="1" parent="1">
          <mxGeometry x="-70" y="530" width="120" height="60" as="geometry" />
        </mxCell>
        <mxCell id="kgFtiSXkmtz2dTj0LC-S-16" value="" style="endArrow=none;html=1;rounded=0;exitX=1;exitY=0.5;exitDx=0;exitDy=0;entryX=-0.008;entryY=0.4;entryDx=0;entryDy=0;entryPerimeter=0;" edge="1" parent="1" source="kgFtiSXkmtz2dTj0LC-S-14" target="kgFtiSXkmtz2dTj0LC-S-13">
          <mxGeometry width="50" height="50" relative="1" as="geometry">
            <mxPoint x="220" y="420" as="sourcePoint" />
            <mxPoint x="270" y="370" as="targetPoint" />
          </mxGeometry>
        </mxCell>
        <mxCell id="kgFtiSXkmtz2dTj0LC-S-17" value="" style="endArrow=none;html=1;rounded=0;exitX=1;exitY=0.5;exitDx=0;exitDy=0;entryX=0;entryY=0.5;entryDx=0;entryDy=0;" edge="1" parent="1" source="kgFtiSXkmtz2dTj0LC-S-15" target="kgFtiSXkmtz2dTj0LC-S-13">
          <mxGeometry width="50" height="50" relative="1" as="geometry">
            <mxPoint x="220" y="420" as="sourcePoint" />
            <mxPoint x="270" y="370" as="targetPoint" />
          </mxGeometry>
        </mxCell>
        <mxCell id="kgFtiSXkmtz2dTj0LC-S-19" value="&lt;font style=&quot;font-size: 14px;&quot;&gt;Многие ко многим. У читателя может быть множество книг, у книги также может быть множество читателей через выдачу книг&lt;br&gt;&lt;/font&gt;" style="text;html=1;strokeColor=none;fillColor=none;align=center;verticalAlign=middle;whiteSpace=wrap;rounded=0;" vertex="1" parent="1">
          <mxGeometry x="-50" y="370" width="260" height="30" as="geometry" />
        </mxCell>
        <mxCell id="kgFtiSXkmtz2dTj0LC-S-20" value="" style="endArrow=none;html=1;rounded=0;exitX=1;exitY=0.5;exitDx=0;exitDy=0;entryX=0;entryY=0.5;entryDx=0;entryDy=0;" edge="1" parent="1" source="kgFtiSXkmtz2dTj0LC-S-13" target="kgFtiSXkmtz2dTj0LC-S-6">
          <mxGeometry width="50" height="50" relative="1" as="geometry">
            <mxPoint x="220" y="440" as="sourcePoint" />
            <mxPoint x="270" y="390" as="targetPoint" />
          </mxGeometry>
        </mxCell>
        <mxCell id="kgFtiSXkmtz2dTj0LC-S-21" value="&lt;font style=&quot;font-size: 14px;&quot;&gt;Многие ко многим. У автора может быть множество книг, у книги может быть несколько авторов.&lt;/font&gt;" style="text;html=1;strokeColor=none;fillColor=none;align=center;verticalAlign=middle;whiteSpace=wrap;rounded=0;" vertex="1" parent="1">
          <mxGeometry x="250" y="570" width="200" height="30" as="geometry" />
        </mxCell>
        <mxCell id="kgFtiSXkmtz2dTj0LC-S-22" value="Выдача книги" style="rounded=0;whiteSpace=wrap;html=1;" vertex="1" parent="1">
          <mxGeometry x="470" y="90" width="120" height="60" as="geometry" />
        </mxCell>
        <mxCell id="kgFtiSXkmtz2dTj0LC-S-23" value="Номер выдачи" style="rounded=0;whiteSpace=wrap;html=1;" vertex="1" parent="1">
          <mxGeometry x="470" width="120" height="60" as="geometry" />
        </mxCell>
        <mxCell id="kgFtiSXkmtz2dTj0LC-S-24" value="Дата выдачи" style="rounded=0;whiteSpace=wrap;html=1;" vertex="1" parent="1">
          <mxGeometry x="610" width="120" height="60" as="geometry" />
        </mxCell>
        <mxCell id="kgFtiSXkmtz2dTj0LC-S-26" value="Дата возврата" style="rounded=0;whiteSpace=wrap;html=1;" vertex="1" parent="1">
          <mxGeometry x="610" y="80" width="120" height="60" as="geometry" />
        </mxCell>
        <mxCell id="kgFtiSXkmtz2dTj0LC-S-27" value="" style="endArrow=none;html=1;rounded=0;entryX=0.5;entryY=1;entryDx=0;entryDy=0;exitX=0.5;exitY=0;exitDx=0;exitDy=0;" edge="1" parent="1" source="kgFtiSXkmtz2dTj0LC-S-22" target="kgFtiSXkmtz2dTj0LC-S-23">
          <mxGeometry width="50" height="50" relative="1" as="geometry">
            <mxPoint x="220" y="270" as="sourcePoint" />
            <mxPoint x="270" y="220" as="targetPoint" />
          </mxGeometry>
        </mxCell>
        <mxCell id="kgFtiSXkmtz2dTj0LC-S-28" value="" style="endArrow=none;html=1;rounded=0;entryX=0;entryY=1;entryDx=0;entryDy=0;exitX=1;exitY=0;exitDx=0;exitDy=0;" edge="1" parent="1" source="kgFtiSXkmtz2dTj0LC-S-22" target="kgFtiSXkmtz2dTj0LC-S-24">
          <mxGeometry width="50" height="50" relative="1" as="geometry">
            <mxPoint x="220" y="270" as="sourcePoint" />
            <mxPoint x="270" y="220" as="targetPoint" />
          </mxGeometry>
        </mxCell>
        <mxCell id="kgFtiSXkmtz2dTj0LC-S-29" value="" style="endArrow=none;html=1;rounded=0;entryX=0;entryY=0.5;entryDx=0;entryDy=0;exitX=1;exitY=0.5;exitDx=0;exitDy=0;" edge="1" parent="1" source="kgFtiSXkmtz2dTj0LC-S-22" target="kgFtiSXkmtz2dTj0LC-S-26">
          <mxGeometry width="50" height="50" relative="1" as="geometry">
            <mxPoint x="220" y="270" as="sourcePoint" />
            <mxPoint x="270" y="220" as="targetPoint" />
          </mxGeometry>
        </mxCell>
        <mxCell id="kgFtiSXkmtz2dTj0LC-S-30" value="" style="endArrow=none;html=1;rounded=0;exitX=1;exitY=0;exitDx=0;exitDy=0;entryX=0.4;entryY=1.017;entryDx=0;entryDy=0;entryPerimeter=0;" edge="1" parent="1" source="kgFtiSXkmtz2dTj0LC-S-13" target="kgFtiSXkmtz2dTj0LC-S-22">
          <mxGeometry width="50" height="50" relative="1" as="geometry">
            <mxPoint x="220" y="470" as="sourcePoint" />
            <mxPoint x="270" y="420" as="targetPoint" />
          </mxGeometry>
        </mxCell>
        <mxCell id="kgFtiSXkmtz2dTj0LC-S-31" value="" style="endArrow=none;dashed=1;html=1;rounded=0;entryX=0;entryY=0.5;entryDx=0;entryDy=0;exitX=1;exitY=0.5;exitDx=0;exitDy=0;" edge="1" parent="1" source="kgFtiSXkmtz2dTj0LC-S-1" target="kgFtiSXkmtz2dTj0LC-S-22">
          <mxGeometry width="50" height="50" relative="1" as="geometry">
            <mxPoint x="220" y="270" as="sourcePoint" />
            <mxPoint x="270" y="220" as="targetPoint" />
          </mxGeometry>
        </mxCell>
        <mxCell id="kgFtiSXkmtz2dTj0LC-S-32" value="" style="endArrow=none;dashed=1;html=1;dashPattern=1 3;strokeWidth=2;rounded=0;entryX=0;entryY=0.5;entryDx=0;entryDy=0;exitX=0.667;exitY=0;exitDx=0;exitDy=0;exitPerimeter=0;" edge="1" parent="1" source="kgFtiSXkmtz2dTj0LC-S-13" target="kgFtiSXkmtz2dTj0LC-S-22">
          <mxGeometry width="50" height="50" relative="1" as="geometry">
            <mxPoint x="220" y="270" as="sourcePoint" />
            <mxPoint x="270" y="220" as="targetPoint" />
          </mxGeometry>
        </mxCell>
        <mxCell id="kgFtiSXkmtz2dTj0LC-S-33" value="" style="endArrow=none;html=1;rounded=0;exitX=0.858;exitY=-0.033;exitDx=0;exitDy=0;exitPerimeter=0;" edge="1" parent="1" source="kgFtiSXkmtz2dTj0LC-S-13">
          <mxGeometry width="50" height="50" relative="1" as="geometry">
            <mxPoint x="220" y="270" as="sourcePoint" />
            <mxPoint x="270" y="220" as="targetPoint" />
          </mxGeometry>
        </mxCell>
        <mxCell id="kgFtiSXkmtz2dTj0LC-S-34" value="" style="endArrow=none;html=1;rounded=0;" edge="1" parent="1">
          <mxGeometry width="50" height="50" relative="1" as="geometry">
            <mxPoint x="470" y="120" as="sourcePoint" />
            <mxPoint x="270" y="220" as="targetPoint" />
          </mxGeometry>
        </mxCell>
        <mxCell id="kgFtiSXkmtz2dTj0LC-S-35" value="" style="endArrow=none;html=1;rounded=0;exitX=0.633;exitY=0.983;exitDx=0;exitDy=0;exitPerimeter=0;" edge="1" parent="1" source="kgFtiSXkmtz2dTj0LC-S-1">
          <mxGeometry width="50" height="50" relative="1" as="geometry">
            <mxPoint x="220" y="270" as="sourcePoint" />
            <mxPoint x="270" y="220" as="targetPoint" />
          </mxGeometry>
        </mxCell>
        <mxCell id="kgFtiSXkmtz2dTj0LC-S-36" value="&lt;font style=&quot;font-size: 14px;&quot;&gt;Один к одному. Выдача книги создает связь между одной конкретной книгой, и одним конкретным читателем&lt;/font&gt;" style="text;html=1;strokeColor=none;fillColor=none;align=center;verticalAlign=middle;whiteSpace=wrap;rounded=0;" vertex="1" parent="1">
          <mxGeometry x="70" y="230" width="190" height="30" as="geometry" />
        </mxCell>
      </root>
    </mxGraphModel>
  </diagram>
</mxfile>
